<svg id="Capa_3" data-name="Capa 3" xmlns="http://www.w3.org/2000/svg" viewBox="0 0 592.47 513.55"><defs><style>.cls-1{fill:#1d1d1b;}.cls-2{fill:#fff;stroke:#1d1d1b;stroke-miterlimit:10;stroke-width:25px;}</style></defs><path class="cls-1" d="M22.83,612.46l113.85-104q.42-73.41.83-146.83L19.22,233.28Q21,422.87,22.83,612.46Z" transform="translate(-9.76 -139.22)"/><path class="cls-1" d="M187,505.11l218.14,47q5-100.68,10.06-201.36L183.66,370.87Z" transform="translate(-9.76 -139.22)"/><path class="cls-1" d="M463.89,338.15q-3.78,114.11-7.55,228.21l130,86.42V219.85Z" transform="translate(-9.76 -139.22)"/><path class="cls-2" d="M22.57,182.1q1.82,189.59,3.62,379.18L140,457.29l.84-146.83Z" transform="translate(-9.76 -139.22)"/><path class="cls-2" d="M187,319.69q1.66,67.13,3.35,134.24l218.14,47q5-100.68,10.07-201.36Z" transform="translate(-9.76 -139.22)"/><path class="cls-2" d="M467.24,287q-3.76,114.11-7.55,228.21L589.74,601.6V168.67Z" transform="translate(-9.76 -139.22)"/><path class="cls-1" d="M237.36,351.57l131.72-10.9-.84,95.64-133.4-18.45Z" transform="translate(-9.76 -139.22)"/><path class="cls-1" d="M495.77,333.12l60.41-53.7q-1.12,81.66-2.24,163.33l-53.7-24.61Z" transform="translate(-9.76 -139.22)"/></svg>